<svg width="227" height="63" viewBox="0 0 227 63" fill="none" xmlns="http://www.w3.org/2000/svg">
<path d="M210 0H-0.000305176C68.811 31.7495 -0.000305176 63 -0.000305176 63H210C268.5 63 152.211 35.3564 210 0Z" fill="#012A4C"/>
<path d="M50.11 42.36C48.41 42.36 46.91 41.95 45.61 41.13C44.31 40.29 43.29 39.11 42.55 37.59C41.83 36.05 41.47 34.22 41.47 32.1C41.47 29.98 41.83 28.17 42.55 26.67C43.29 25.17 44.31 24.02 45.61 23.22C46.91 22.42 48.41 22.02 50.11 22.02C51.83 22.02 53.34 22.42 54.64 23.22C55.94 24.02 56.95 25.17 57.67 26.67C58.41 28.17 58.78 29.98 58.78 32.1C58.78 34.22 58.41 36.05 57.67 37.59C56.95 39.11 55.94 40.29 54.64 41.13C53.34 41.95 51.83 42.36 50.11 42.36ZM50.11 39.33C51.65 39.33 52.88 38.68 53.8 37.38C54.72 36.06 55.18 34.3 55.18 32.1C55.18 29.9 54.72 28.18 53.8 26.94C52.88 25.68 51.65 25.05 50.11 25.05C48.57 25.05 47.34 25.68 46.42 26.94C45.5 28.18 45.04 29.9 45.04 32.1C45.04 34.3 45.5 36.06 46.42 37.38C47.34 38.68 48.57 39.33 50.11 39.33Z" fill="#F7F7F7"/>
<path d="M62.4048 42V27.27H65.2548L65.4948 29.25H65.6148C66.2748 28.61 66.9948 28.06 67.7748 27.6C68.5548 27.14 69.4448 26.91 70.4448 26.91C72.0248 26.91 73.1748 27.42 73.8948 28.44C74.6148 29.46 74.9748 30.9 74.9748 32.76V42H71.5248V33.21C71.5248 31.99 71.3448 31.13 70.9848 30.63C70.6248 30.13 70.0348 29.88 69.2148 29.88C68.5748 29.88 68.0048 30.04 67.5048 30.36C67.0248 30.66 66.4748 31.11 65.8548 31.71V42H62.4048Z" fill="#F7F7F7"/>
<path d="M81.442 42L77.542 22.38H81.112L82.822 32.28C82.982 33.32 83.142 34.37 83.302 35.43C83.482 36.47 83.642 37.51 83.782 38.55H83.902C84.122 37.51 84.332 36.47 84.532 35.43C84.752 34.37 84.972 33.32 85.192 32.28L87.592 22.38H90.622L93.022 32.28C93.242 33.3 93.462 34.34 93.682 35.4C93.902 36.44 94.122 37.49 94.342 38.55H94.462C94.622 37.49 94.782 36.44 94.942 35.4C95.102 34.36 95.252 33.32 95.392 32.28L97.102 22.38H100.432L96.682 42H92.362L89.932 31.68C89.772 30.92 89.6119 30.16 89.452 29.4C89.312 28.64 89.182 27.89 89.062 27.15H88.942C88.802 27.89 88.652 28.64 88.492 29.4C88.352 30.16 88.202 30.92 88.042 31.68L85.672 42H81.442Z" fill="#F7F7F7"/>
<path d="M109.486 42.36C108.126 42.36 106.896 42.06 105.796 41.46C104.696 40.84 103.826 39.96 103.186 38.82C102.546 37.66 102.226 36.27 102.226 34.65C102.226 33.05 102.546 31.67 103.186 30.51C103.846 29.35 104.696 28.46 105.736 27.84C106.776 27.22 107.866 26.91 109.006 26.91C110.346 26.91 111.466 27.21 112.366 27.81C113.266 28.39 113.946 29.21 114.406 30.27C114.866 31.31 115.096 32.52 115.096 33.9C115.096 34.62 115.046 35.18 114.946 35.58H105.586C105.746 36.88 106.216 37.89 106.996 38.61C107.776 39.33 108.756 39.69 109.936 39.69C110.576 39.69 111.166 39.6 111.706 39.42C112.266 39.22 112.816 38.95 113.356 38.61L114.526 40.77C113.826 41.23 113.046 41.61 112.186 41.91C111.326 42.21 110.426 42.36 109.486 42.36ZM105.556 33.24H112.096C112.096 32.1 111.846 31.21 111.346 30.57C110.846 29.91 110.096 29.58 109.096 29.58C108.236 29.58 107.466 29.9 106.786 30.54C106.126 31.16 105.716 32.06 105.556 33.24Z" fill="#F7F7F7"/>
<path d="M121.61 42.36C120.33 42.36 119.28 41.96 118.46 41.16C117.66 40.36 117.26 39.32 117.26 38.04C117.26 36.46 117.95 35.24 119.33 34.38C120.71 33.5 122.91 32.9 125.93 32.58C125.91 31.8 125.7 31.13 125.3 30.57C124.92 29.99 124.23 29.7 123.23 29.7C122.51 29.7 121.8 29.84 121.1 30.12C120.42 30.4 119.75 30.74 119.09 31.14L117.83 28.83C118.65 28.31 119.57 27.86 120.59 27.48C121.63 27.1 122.73 26.91 123.89 26.91C125.73 26.91 127.1 27.46 128 28.56C128.92 29.64 129.38 31.21 129.38 33.27V42H126.53L126.29 40.38H126.17C125.51 40.94 124.8 41.41 124.04 41.79C123.3 42.17 122.49 42.36 121.61 42.36ZM122.72 39.66C123.32 39.66 123.86 39.52 124.34 39.24C124.84 38.94 125.37 38.54 125.93 38.04V34.74C123.93 35 122.54 35.39 121.76 35.91C120.98 36.41 120.59 37.03 120.59 37.77C120.59 38.43 120.79 38.91 121.19 39.21C121.59 39.51 122.1 39.66 122.72 39.66Z" fill="#F7F7F7"/>
<path d="M138.23 42.36C136.53 42.36 135.32 41.87 134.6 40.89C133.9 39.89 133.55 38.6 133.55 37.02V30H131.45V27.42L133.73 27.27L134.15 23.25H137.03V27.27H140.78V30H137.03V37.02C137.03 38.74 137.72 39.6 139.1 39.6C139.36 39.6 139.63 39.57 139.91 39.51C140.19 39.43 140.43 39.35 140.63 39.27L141.23 41.82C140.83 41.96 140.37 42.08 139.85 42.18C139.35 42.3 138.81 42.36 138.23 42.36Z" fill="#F7F7F7"/>
<path d="M143.879 42V20.82H147.329V26.28L147.209 29.13C147.829 28.55 148.519 28.04 149.279 27.6C150.039 27.14 150.919 26.91 151.919 26.91C153.499 26.91 154.649 27.42 155.369 28.44C156.089 29.46 156.449 30.9 156.449 32.76V42H152.999V33.21C152.999 31.99 152.819 31.13 152.459 30.63C152.099 30.13 151.509 29.88 150.689 29.88C150.049 29.88 149.479 30.04 148.979 30.36C148.499 30.66 147.949 31.11 147.329 31.71V42H143.879Z" fill="#F7F7F7"/>
<path d="M166.908 42.36C165.548 42.36 164.318 42.06 163.218 41.46C162.118 40.84 161.248 39.96 160.608 38.82C159.968 37.66 159.648 36.27 159.648 34.65C159.648 33.05 159.968 31.67 160.608 30.51C161.268 29.35 162.118 28.46 163.158 27.84C164.198 27.22 165.288 26.91 166.428 26.91C167.768 26.91 168.888 27.21 169.788 27.81C170.688 28.39 171.368 29.21 171.828 30.27C172.288 31.31 172.518 32.52 172.518 33.9C172.518 34.62 172.468 35.18 172.368 35.58H163.008C163.168 36.88 163.638 37.89 164.418 38.61C165.198 39.33 166.178 39.69 167.358 39.69C167.998 39.69 168.588 39.6 169.128 39.42C169.688 39.22 170.238 38.95 170.778 38.61L171.948 40.77C171.248 41.23 170.468 41.61 169.608 41.91C168.748 42.21 167.848 42.36 166.908 42.36ZM162.978 33.24H169.518C169.518 32.1 169.268 31.21 168.768 30.57C168.268 29.91 167.518 29.58 166.518 29.58C165.658 29.58 164.888 29.9 164.208 30.54C163.548 31.16 163.138 32.06 162.978 33.24Z" fill="#F7F7F7"/>
<path d="M175.813 42V27.27H178.663L178.903 29.88H179.023C179.543 28.92 180.173 28.19 180.913 27.69C181.653 27.17 182.413 26.91 183.193 26.91C183.893 26.91 184.453 27.01 184.873 27.21L184.273 30.21C184.013 30.13 183.773 30.07 183.553 30.03C183.333 29.99 183.063 29.97 182.743 29.97C182.163 29.97 181.553 30.2 180.913 30.66C180.273 31.1 179.723 31.88 179.263 33V42H175.813Z" fill="#F7F7F7"/>
</svg>
