<svg width="144" height="23" viewBox="0 0 144 23" fill="none" xmlns="http://www.w3.org/2000/svg">
<path d="M9.11 22.36C7.41 22.36 5.91 21.95 4.61 21.13C3.31 20.29 2.29 19.11 1.55 17.59C0.83 16.05 0.47 14.22 0.47 12.1C0.47 9.98 0.83 8.17 1.55 6.67C2.29 5.17 3.31 4.02 4.61 3.22C5.91 2.42 7.41 2.02 9.11 2.02C10.83 2.02 12.34 2.42 13.64 3.22C14.94 4.02 15.95 5.17 16.67 6.67C17.41 8.17 17.78 9.98 17.78 12.1C17.78 14.22 17.41 16.05 16.67 17.59C15.95 19.11 14.94 20.29 13.64 21.13C12.34 21.95 10.83 22.36 9.11 22.36ZM9.11 19.33C10.65 19.33 11.88 18.68 12.8 17.38C13.72 16.06 14.18 14.3 14.18 12.1C14.18 9.9 13.72 8.18 12.8 6.94C11.88 5.68 10.65 5.05 9.11 5.05C7.57 5.05 6.34 5.68 5.42 6.94C4.5 8.18 4.04 9.9 4.04 12.1C4.04 14.3 4.5 16.06 5.42 17.38C6.34 18.68 7.57 19.33 9.11 19.33ZM21.4048 22V7.27H24.2548L24.4948 9.25H24.6148C25.2748 8.61 25.9948 8.06 26.7748 7.6C27.5548 7.14 28.4448 6.91 29.4448 6.91C31.0248 6.91 32.1748 7.42 32.8948 8.44C33.6148 9.46 33.9748 10.9 33.9748 12.76V22H30.5248V13.21C30.5248 11.99 30.3448 11.13 29.9848 10.63C29.6248 10.13 29.0348 9.88 28.2148 9.88C27.5748 9.88 27.0048 10.04 26.5048 10.36C26.0248 10.66 25.4748 11.11 24.8548 11.71V22H21.4048ZM40.442 22L36.542 2.38H40.112L41.822 12.28C41.982 13.32 42.142 14.37 42.302 15.43C42.482 16.47 42.642 17.51 42.782 18.55H42.902C43.122 17.51 43.332 16.47 43.532 15.43C43.752 14.37 43.972 13.32 44.192 12.28L46.592 2.38H49.622L52.022 12.28C52.242 13.3 52.462 14.34 52.682 15.4C52.902 16.44 53.122 17.49 53.342 18.55H53.462C53.622 17.49 53.782 16.44 53.942 15.4C54.102 14.36 54.252 13.32 54.392 12.28L56.102 2.38H59.432L55.682 22H51.362L48.932 11.68C48.772 10.92 48.612 10.16 48.452 9.4C48.312 8.64 48.182 7.89 48.062 7.15H47.942C47.802 7.89 47.652 8.64 47.492 9.4C47.352 10.16 47.202 10.92 47.042 11.68L44.672 22H40.442ZM68.4861 22.36C67.1261 22.36 65.8961 22.06 64.7961 21.46C63.6961 20.84 62.8261 19.96 62.1861 18.82C61.5461 17.66 61.2261 16.27 61.2261 14.65C61.2261 13.05 61.5461 11.67 62.1861 10.51C62.8461 9.35 63.6961 8.46 64.7361 7.84C65.7761 7.22 66.8661 6.91 68.0061 6.91C69.3461 6.91 70.4661 7.21 71.3661 7.81C72.2661 8.39 72.9461 9.21 73.4061 10.27C73.8661 11.31 74.0961 12.52 74.0961 13.9C74.0961 14.62 74.0461 15.18 73.9461 15.58H64.5861C64.7461 16.88 65.2161 17.89 65.9961 18.61C66.7761 19.33 67.7561 19.69 68.9361 19.69C69.5761 19.69 70.1661 19.6 70.7061 19.42C71.2661 19.22 71.8161 18.95 72.3561 18.61L73.5261 20.77C72.8261 21.23 72.0461 21.61 71.1861 21.91C70.3261 22.21 69.4261 22.36 68.4861 22.36ZM64.5561 13.24H71.0961C71.0961 12.1 70.8461 11.21 70.3461 10.57C69.8461 9.91 69.0961 9.58 68.0961 9.58C67.2361 9.58 66.4661 9.9 65.7861 10.54C65.1261 11.16 64.7161 12.06 64.5561 13.24ZM80.6096 22.36C79.3296 22.36 78.2796 21.96 77.4596 21.16C76.6596 20.36 76.2596 19.32 76.2596 18.04C76.2596 16.46 76.9496 15.24 78.3296 14.38C79.7096 13.5 81.9096 12.9 84.9296 12.58C84.9096 11.8 84.6996 11.13 84.2996 10.57C83.9196 9.99 83.2296 9.7 82.2296 9.7C81.5096 9.7 80.7996 9.84 80.0996 10.12C79.4196 10.4 78.7496 10.74 78.0896 11.14L76.8296 8.83C77.6496 8.31 78.5696 7.86 79.5896 7.48C80.6296 7.1 81.7296 6.91 82.8896 6.91C84.7296 6.91 86.0996 7.46 86.9996 8.56C87.9196 9.64 88.3796 11.21 88.3796 13.27V22H85.5296L85.2896 20.38H85.1696C84.5096 20.94 83.7996 21.41 83.0396 21.79C82.2996 22.17 81.4896 22.36 80.6096 22.36ZM81.7196 19.66C82.3196 19.66 82.8596 19.52 83.3396 19.24C83.8396 18.94 84.3696 18.54 84.9296 18.04V14.74C82.9296 15 81.5396 15.39 80.7596 15.91C79.9796 16.41 79.5896 17.03 79.5896 17.77C79.5896 18.43 79.7896 18.91 80.1896 19.21C80.5896 19.51 81.0996 19.66 81.7196 19.66ZM97.2296 22.36C95.5296 22.36 94.3196 21.87 93.5996 20.89C92.8996 19.89 92.5496 18.6 92.5496 17.02V10H90.4496V7.42L92.7296 7.27L93.1496 3.25H96.0296V7.27H99.7796V10H96.0296V17.02C96.0296 18.74 96.7196 19.6 98.0996 19.6C98.3596 19.6 98.6296 19.57 98.9096 19.51C99.1896 19.43 99.4296 19.35 99.6296 19.27L100.23 21.82C99.8296 21.96 99.3696 22.08 98.8496 22.18C98.3496 22.3 97.8096 22.36 97.2296 22.36ZM102.879 22V0.819999H106.329V6.28L106.209 9.13C106.829 8.55 107.519 8.04 108.279 7.6C109.039 7.14 109.919 6.91 110.919 6.91C112.499 6.91 113.649 7.42 114.369 8.44C115.089 9.46 115.449 10.9 115.449 12.76V22H111.999V13.21C111.999 11.99 111.819 11.13 111.459 10.63C111.099 10.13 110.509 9.88 109.689 9.88C109.049 9.88 108.479 10.04 107.979 10.36C107.499 10.66 106.949 11.11 106.329 11.71V22H102.879ZM125.908 22.36C124.548 22.36 123.318 22.06 122.218 21.46C121.118 20.84 120.248 19.96 119.608 18.82C118.968 17.66 118.648 16.27 118.648 14.65C118.648 13.05 118.968 11.67 119.608 10.51C120.268 9.35 121.118 8.46 122.158 7.84C123.198 7.22 124.288 6.91 125.428 6.91C126.768 6.91 127.888 7.21 128.788 7.81C129.688 8.39 130.368 9.21 130.828 10.27C131.288 11.31 131.518 12.52 131.518 13.9C131.518 14.62 131.468 15.18 131.368 15.58H122.008C122.168 16.88 122.638 17.89 123.418 18.61C124.198 19.33 125.178 19.69 126.358 19.69C126.998 19.69 127.588 19.6 128.128 19.42C128.688 19.22 129.238 18.95 129.778 18.61L130.948 20.77C130.248 21.23 129.468 21.61 128.608 21.91C127.748 22.21 126.848 22.36 125.908 22.36ZM121.978 13.24H128.518C128.518 12.1 128.268 11.21 127.768 10.57C127.268 9.91 126.518 9.58 125.518 9.58C124.658 9.58 123.888 9.9 123.208 10.54C122.548 11.16 122.138 12.06 121.978 13.24ZM134.813 22V7.27H137.663L137.903 9.88H138.023C138.543 8.92 139.173 8.19 139.913 7.69C140.653 7.17 141.413 6.91 142.193 6.91C142.893 6.91 143.453 7.01 143.873 7.21L143.273 10.21C143.013 10.13 142.773 10.07 142.553 10.03C142.333 9.99 142.063 9.97 141.743 9.97C141.163 9.97 140.553 10.2 139.913 10.66C139.273 11.1 138.723 11.88 138.263 13V22H134.813Z" fill="#012A4C"/>
</svg>
