<svg width="262" height="52" viewBox="0 0 262 52" fill="none" xmlns="http://www.w3.org/2000/svg">
<rect width="262" height="52" fill="#012A4C"/>
<path d="M103.11 37.36C101.41 37.36 99.91 36.95 98.61 36.13C97.31 35.29 96.29 34.11 95.55 32.59C94.83 31.05 94.47 29.22 94.47 27.1C94.47 24.98 94.83 23.17 95.55 21.67C96.29 20.17 97.31 19.02 98.61 18.22C99.91 17.42 101.41 17.02 103.11 17.02C104.83 17.02 106.34 17.42 107.64 18.22C108.94 19.02 109.95 20.17 110.67 21.67C111.41 23.17 111.78 24.98 111.78 27.1C111.78 29.22 111.41 31.05 110.67 32.59C109.95 34.11 108.94 35.29 107.64 36.13C106.34 36.95 104.83 37.36 103.11 37.36ZM103.11 34.33C104.65 34.33 105.88 33.68 106.8 32.38C107.72 31.06 108.18 29.3 108.18 27.1C108.18 24.9 107.72 23.18 106.8 21.94C105.88 20.68 104.65 20.05 103.11 20.05C101.57 20.05 100.34 20.68 99.42 21.94C98.5 23.18 98.04 24.9 98.04 27.1C98.04 29.3 98.5 31.06 99.42 32.38C100.34 33.68 101.57 34.33 103.11 34.33ZM115.405 37V22.27H118.255L118.495 24.25H118.615C119.275 23.61 119.995 23.06 120.775 22.6C121.555 22.14 122.445 21.91 123.445 21.91C125.025 21.91 126.175 22.42 126.895 23.44C127.615 24.46 127.975 25.9 127.975 27.76V37H124.525V28.21C124.525 26.99 124.345 26.13 123.985 25.63C123.625 25.13 123.035 24.88 122.215 24.88C121.575 24.88 121.005 25.04 120.505 25.36C120.025 25.66 119.475 26.11 118.855 26.71V37H115.405ZM134.442 37L130.542 17.38H134.112L135.822 27.28C135.982 28.32 136.142 29.37 136.302 30.43C136.482 31.47 136.642 32.51 136.782 33.55H136.902C137.122 32.51 137.332 31.47 137.532 30.43C137.752 29.37 137.972 28.32 138.192 27.28L140.592 17.38H143.622L146.022 27.28C146.242 28.3 146.462 29.34 146.682 30.4C146.902 31.44 147.122 32.49 147.342 33.55H147.462C147.622 32.49 147.782 31.44 147.942 30.4C148.102 29.36 148.252 28.32 148.392 27.28L150.102 17.38H153.432L149.682 37H145.362L142.932 26.68C142.772 25.92 142.612 25.16 142.452 24.4C142.312 23.64 142.182 22.89 142.062 22.15H141.942C141.802 22.89 141.652 23.64 141.492 24.4C141.352 25.16 141.202 25.92 141.042 26.68L138.672 37H134.442ZM162.486 37.36C161.126 37.36 159.896 37.06 158.796 36.46C157.696 35.84 156.826 34.96 156.186 33.82C155.546 32.66 155.226 31.27 155.226 29.65C155.226 28.05 155.546 26.67 156.186 25.51C156.846 24.35 157.696 23.46 158.736 22.84C159.776 22.22 160.866 21.91 162.006 21.91C163.346 21.91 164.466 22.21 165.366 22.81C166.266 23.39 166.946 24.21 167.406 25.27C167.866 26.31 168.096 27.52 168.096 28.9C168.096 29.62 168.046 30.18 167.946 30.58H158.586C158.746 31.88 159.216 32.89 159.996 33.61C160.776 34.33 161.756 34.69 162.936 34.69C163.576 34.69 164.166 34.6 164.706 34.42C165.266 34.22 165.816 33.95 166.356 33.61L167.526 35.77C166.826 36.23 166.046 36.61 165.186 36.91C164.326 37.21 163.426 37.36 162.486 37.36ZM158.556 28.24H165.096C165.096 27.1 164.846 26.21 164.346 25.57C163.846 24.91 163.096 24.58 162.096 24.58C161.236 24.58 160.466 24.9 159.786 25.54C159.126 26.16 158.716 27.06 158.556 28.24ZM174.61 37.36C173.33 37.36 172.28 36.96 171.46 36.16C170.66 35.36 170.26 34.32 170.26 33.04C170.26 31.46 170.95 30.24 172.33 29.38C173.71 28.5 175.91 27.9 178.93 27.58C178.91 26.8 178.7 26.13 178.3 25.57C177.92 24.99 177.23 24.7 176.23 24.7C175.51 24.7 174.8 24.84 174.1 25.12C173.42 25.4 172.75 25.74 172.09 26.14L170.83 23.83C171.65 23.31 172.57 22.86 173.59 22.48C174.63 22.1 175.73 21.91 176.89 21.91C178.73 21.91 180.1 22.46 181 23.56C181.92 24.64 182.38 26.21 182.38 28.27V37H179.53L179.29 35.38H179.17C178.51 35.94 177.8 36.41 177.04 36.79C176.3 37.17 175.49 37.36 174.61 37.36ZM175.72 34.66C176.32 34.66 176.86 34.52 177.34 34.24C177.84 33.94 178.37 33.54 178.93 33.04V29.74C176.93 30 175.54 30.39 174.76 30.91C173.98 31.41 173.59 32.03 173.59 32.77C173.59 33.43 173.79 33.91 174.19 34.21C174.59 34.51 175.1 34.66 175.72 34.66ZM191.23 37.36C189.53 37.36 188.32 36.87 187.6 35.89C186.9 34.89 186.55 33.6 186.55 32.02V25H184.45V22.42L186.73 22.27L187.15 18.25H190.03V22.27H193.78V25H190.03V32.02C190.03 33.74 190.72 34.6 192.1 34.6C192.36 34.6 192.63 34.57 192.91 34.51C193.19 34.43 193.43 34.35 193.63 34.27L194.23 36.82C193.83 36.96 193.37 37.08 192.85 37.18C192.35 37.3 191.81 37.36 191.23 37.36ZM196.879 37V15.82H200.329V21.28L200.209 24.13C200.829 23.55 201.519 23.04 202.279 22.6C203.039 22.14 203.919 21.91 204.919 21.91C206.499 21.91 207.649 22.42 208.369 23.44C209.089 24.46 209.449 25.9 209.449 27.76V37H205.999V28.21C205.999 26.99 205.819 26.13 205.459 25.63C205.099 25.13 204.509 24.88 203.689 24.88C203.049 24.88 202.479 25.04 201.979 25.36C201.499 25.66 200.949 26.11 200.329 26.71V37H196.879ZM219.908 37.36C218.548 37.36 217.318 37.06 216.218 36.46C215.118 35.84 214.248 34.96 213.608 33.82C212.968 32.66 212.648 31.27 212.648 29.65C212.648 28.05 212.968 26.67 213.608 25.51C214.268 24.35 215.118 23.46 216.158 22.84C217.198 22.22 218.288 21.91 219.428 21.91C220.768 21.91 221.888 22.21 222.788 22.81C223.688 23.39 224.368 24.21 224.828 25.27C225.288 26.31 225.518 27.52 225.518 28.9C225.518 29.62 225.468 30.18 225.368 30.58H216.008C216.168 31.88 216.638 32.89 217.418 33.61C218.198 34.33 219.178 34.69 220.358 34.69C220.998 34.69 221.588 34.6 222.128 34.42C222.688 34.22 223.238 33.95 223.778 33.61L224.948 35.77C224.248 36.23 223.468 36.61 222.608 36.91C221.748 37.21 220.848 37.36 219.908 37.36ZM215.978 28.24H222.518C222.518 27.1 222.268 26.21 221.768 25.57C221.268 24.91 220.518 24.58 219.518 24.58C218.658 24.58 217.888 24.9 217.208 25.54C216.548 26.16 216.138 27.06 215.978 28.24ZM228.813 37V22.27H231.663L231.903 24.88H232.023C232.543 23.92 233.173 23.19 233.913 22.69C234.653 22.17 235.413 21.91 236.193 21.91C236.893 21.91 237.453 22.01 237.873 22.21L237.273 25.21C237.013 25.13 236.773 25.07 236.553 25.03C236.333 24.99 236.063 24.97 235.743 24.97C235.163 24.97 234.553 25.2 233.913 25.66C233.273 26.1 232.723 26.88 232.263 28V37H228.813Z" fill="#F7F7F7"/>
</svg>
